PathFileType	4	(X/Y/Z)	..\data\2014019\dynamic\2014019_C5_03.trc
DataRate	CameraRate	NumFrames	NumMarkers	Units	OrigDataRate	OrigDataStartFrame	OrigNumFrames
100.000000	100.000000	4	52	mm	100.000000	35	142
Frame#	Time	L_IAS			L_IPS			R_IPS			R_IAS			L_FTC			L_FLE			L_FME			L_FAX			L_TTC			L_FAL			L_TAM			L_FCC			L_FM1			L_FM2			L_FM5			R_FTC			R_FLE			R_FME			R_FAX			R_TTC			R_FAL			R_TAM			R_FCC			R_FM1			R_FM2			R_FM5			CV7			TV10			SXS			SJN			L_SIA			L_SRS			L_SAA			L_SAE			L_HLE			L_HME			L_UOA			L_RSP			L_UHE			L_HM2			L_HM5			R_SIA			R_SRS			R_SAA			R_SAE			R_HLE			R_HME			R_UOA			R_RSP			R_UHE			R_HM2			R_HM5			
		X1	Y1	Z1	X2	Y2	Z2	X3	Y3	Z3	X4	Y4	Z4	X5	Y5	Z5	X6	Y6	Z6	X7	Y7	Z7	X8	Y8	Z8	X9	Y9	Z9	X10	Y10	Z10	X11	Y11	Z11	X12	Y12	Z12	X13	Y13	Z13	X14	Y14	Z14	X15	Y15	Z15	X16	Y16	Z16	X17	Y17	Z17	X18	Y18	Z18	X19	Y19	Z19	X20	Y20	Z20	X21	Y21	Z21	X22	Y22	Z22	X23	Y23	Z23	X24	Y24	Z24	X25	Y25	Z25	X26	Y26	Z26	X27	Y27	Z27	X28	Y28	Z28	X29	Y29	Z29	X30	Y30	Z30	X31	Y31	Z31	X32	Y32	Z32	X33	Y33	Z33	X34	Y34	Z34	X35	Y35	Z35	X36	Y36	Z36	X37	Y37	Z37	X38	Y38	Z38	X39	Y39	Z39	X40	Y40	Z40	X41	Y41	Z41	X42	Y42	Z42	X43	Y43	Z43	X44	Y44	Z44	X45	Y45	Z45	X46	Y46	Z46	X47	Y47	Z47	X48	Y48	Z48	X49	Y49	Z49	X50	Y50	Z50	X51	Y51	Z51	X52	Y52	Z52	

36	0.35	-712.1862182617189	935.1695556640627	105.3975067138671	-922.9072265625002	998.7509765625002	160.4714965820312	-937.0834960937502	980.6465454101565	257.5780029296874	-737.9520874023439	935.6887207031252	332.8252258300781	-791.6055908203127	884.3867187500002	10.94907283782949	-854.0633544921877	468.3726806640626	75.63062286376945	-899.036804199219	465.1936645507814	206.3206024169921	-887.4610595703127	414.849822998047	70.37728118896474	-843.9055175781252	397.284393310547	128.5024871826171	-964.838073730469	72.82077026367189	124.6733093261718	-942.5632324218752	100.4771194458008	214.4846649169921	-1012.799438476563	35.35565185546876	166.4122924804687	-831.1976318359377	25.40277862548829	230.4073181152343	-807.193786621094	37.31160354614259	177.8569946289062	-840.310729980469	20.05228614807129	116.497459411621	-835.147399902344	841.422302246094	409.7182006835938	-642.0438842773439	480.1812438964845	340.7996215820312	-613.8081054687501	478.7927551269532	207.6923065185547	-668.3967895507814	428.318084716797	342.7347106933594	-601.5223999023439	406.3423767089845	297.4065551757812	-753.2019042968751	99.82233428955081	305.3227233886718	-713.0534057617189	105.8037414550782	221.9483032226562	-790.2338867187502	57.73580551147462	243.5794830322265	-597.1942749023439	38.87356185913087	256.6904602050781	-601.7017211914064	52.50127410888673	313.2296447753906	-650.4462280273439	36.15483474731446	352.2736206054688	-886.686706542969	1474.265502929688	204.3683624267578	-947.3422851562502	1258.49609375	194.3639678955078	-720.4598388671876	1168.131103515625	229.2331237792968	-763.6449584960939	1392.02197265625	219.8534698486328	-941.8200683593752	1296.44287109375	110.5537948608398	-899.8477783203127	1420.2822265625	87.57178497314443	-855.8584594726565	1415.506225585938	29.66018486022939	-808.0332031250002	1434.347900390625	28.98007774353018	-764.7785034179689	1102.483520507813	-44.41720962524424	-791.8545532226565	1091.893798828125	17.82505035400381	-780.5720825195315	1069.06494140625	-9.665804862976172	-567.3072509765626	933.6101074218752	-42.35371398925789	-621.7662963867189	912.3245239257815	-84.43408966064462	-508.4574279785157	863.9929199218752	-57.45516967773445	-596.6691284179689	828.8254394531252	-87.4103317260743	-966.3916625976565	1290.200317382813	262.4023437499999	-932.9834594726565	1423.285034179688	298.4083557128906	-900.7457275390627	1428.640869140625	365.8419494628906	-863.7991943359377	1443.679321289063	377.7212219238281	-950.9680175781252	1129.232543945313	454.9466857910156	-975.895935058594	1127.067749023438	382.5068359374999	-987.222595214844	1110.008056640625	421.1039123535156	-897.8961181640627	876.846862792969	460.3968811035156	-958.0273437500003	892.3280029296877	497.7437438964844	-894.7670898437503	780.732116699219	478.7378234863281	-991.2108154296878	812.8812255859377	488.9560852050781	
37	0.36	-697.0305175781251	932.4206542968752	104.3533630371093	-907.3118286132815	996.6458740234377	162.6643829345702	-920.5864257812502	978.183044433594	259.6195373535156	-720.4770507812501	934.0446777343752	332.5929870605468	-778.9104614257815	882.8096923828127	11.25774860382071	-848.0520019531252	467.9464416503907	76.15628051757804	-891.3022460937502	465.3827514648439	207.3303680419921	-882.266540527344	415.1181640625001	71.05137634277334	-838.4028930664065	396.6653747558595	128.7802734374999	-964.477722167969	74.19677734375001	125.9425125122069	-941.5351562500002	101.2997283935547	215.6672821044921	-1012.4912109375	37.15579223632813	168.1098327636718	-830.5796508789065	25.35135459899903	230.720230102539	-806.831970214844	37.41436386108399	177.8861846923828	-840.5644531250002	20.56130981445313	116.7116622924804	-816.7447509765627	839.7766113281252	411.147216796875	-621.6558837890626	479.9932556152345	340.6282958984375	-594.4942016601564	478.8106689453126	207.4656219482422	-644.6354980468751	426.2701416015626	342.6477355957031	-576.7369384765626	408.7550048828126	297.3213500976562	-702.5195312500001	92.10433959960939	304.7199096679687	-662.9464111328126	101.0371017456055	221.4158630371093	-735.9764404296876	47.00580596923829	242.8511962890625	-542.5164184570314	43.23093414306641	257.0107116699219	-548.2520751953126	57.15695571899415	313.4470825195312	-595.5504760742189	37.53979110717774	352.4450073242188	-869.823425292969	1472.325439453125	203.998062133789	-930.4480590820315	1256.582885742188	194.0692596435546	-703.4238891601564	1165.279907226563	228.781509399414	-746.6133422851564	1389.855346679688	219.5730438232422	-924.5684814453127	1294.399169921875	109.9528656005859	-882.9163818359377	1418.211791992188	87.02801513671865	-838.7454223632815	1413.660766601563	29.19472694396963	-791.0198364257815	1432.997436523438	29.05182266235343	-740.8241577148439	1101.915893554688	-44.66277694702158	-767.5985107421876	1090.806030273438	17.40527343749991	-755.3038330078126	1067.6513671875	-9.881650924682711	-532.9967041015626	945.4224243164065	-40.54534149169929	-586.2216186523439	919.4943847656252	-81.63716888427743	-469.7711486816407	879.4336547851565	-54.47359466552741	-556.0193481445314	837.6296386718752	-82.32975769042977	-949.2202758789065	1287.821044921875	261.4226989746093	-916.2788085937502	1420.934448242188	297.6835937499999	-884.3835449218752	1426.408935546875	365.2665405273437	-847.4219970703127	1441.502685546875	377.4568481445312	-937.786560058594	1127.838623046875	453.7285766601562	-962.038757324219	1125.518432617188	381.1438598632812	-973.6207275390627	1109.55712890625	419.564697265625	-892.0961914062502	874.5399169921877	462.5273132324219	-952.3773803710941	892.1218872070315	498.3272705078125	-892.1726074218753	778.784118652344	482.5647888183594	-987.6837768554691	813.7957153320315	490.2522583007812	
38	0.37	-681.7343139648439	929.6556396484377	103.2531356811523	-891.570983886719	994.4992675781252	164.8928680419921	-903.8760986328127	975.6193847656252	261.5904846191406	-702.9258422851564	932.2072753906252	332.4876098632812	-766.1572265625001	881.280944824219	11.61914634704581	-841.5363769531252	467.4957275390626	76.78533935546866	-882.9355468750002	465.5720214843751	208.4007720947265	-876.4658813476565	415.4100952148439	71.81819915771474	-832.3767700195315	396.0117492675782	129.1576843261718	-964.0521240234377	75.76199340820314	127.1694793701171	-940.5046386718752	102.2048568725586	216.8638916015624	-1012.220886230469	39.16430282592774	169.7572021484374	-829.910583496094	25.25849914550782	231.0045623779296	-806.4069824218752	37.54400634765626	177.8965454101562	-840.7485961914065	21.09265899658203	116.9201889038085	-798.461364746094	837.958190917969	412.4559020996094	-602.1173095703126	479.1759643554689	340.7328186035156	-576.6371459960939	477.8274841308595	207.3519134521484	-621.5816040039064	423.8517150878907	342.8193359375	-553.0286865234376	410.7851562500001	297.2702026367188	-652.3042602539064	85.8406448364258	304.1307678222656	-613.7861328125001	97.77951812744143	220.8145294189453	-682.2583618164064	38.06675720214844	242.1654663085937	-489.3424377441408	49.2548179626465	256.5278015136719	-496.0941162109377	63.2296485900879	312.8897399902344	-541.5953979492189	40.31205368041993	352.0036010742188	-852.8941650390627	1470.216674804688	203.7198333740234	-913.4580078125002	1254.51318359375	193.9231262207031	-686.2456665039064	1162.085327148438	228.3529510498047	-729.4775390625001	1387.471435546875	219.3418731689453	-907.3126220703127	1292.177734375	109.541290283203	-865.995300292969	1415.994873046875	86.6283645629882	-821.6765747070315	1411.674682617188	28.85632133483877	-774.0264282226565	1431.47998046875	29.20200729370108	-717.3452148437501	1101.298095703125	-44.79324340820322	-743.8897705078126	1089.62158203125	17.08538055419913	-730.6677856445314	1066.215942382813	-10.04865837097177	-500.0518493652345	957.8001708984377	-38.32520675659187	-551.6464233398439	927.3748779296877	-78.5003204345704	-432.7250366210939	895.7482910156252	-51.08161163330085	-516.4434814453126	847.548278808594	-77.00923919677741	-931.9080200195315	1285.197387695313	260.5431213378906	-899.554626464844	1418.365600585938	296.9709472656249	-868.0222778320315	1424.009399414063	364.6821289062499	-831.107849121094	1439.21875	377.2025451660156	-924.4486083984377	1126.328857421875	452.408935546875	-947.9193115234377	1123.780395507813	379.6502075195312	-959.8039550781252	1108.903076171875	417.8586730957031	-885.7910156250003	872.4001464843752	464.7300720214844	-946.3157348632816	891.9787597656252	498.5966796875	-889.0552368164066	777.1787719726565	486.6578063964844	-983.5906372070316	814.8118286132815	491.156494140625	
39	0.38	-666.2514648437501	926.9338378906252	102.1332778930663	-875.6318969726565	992.381774902344	167.1494903564452	-886.9277954101565	973.0333251953127	263.5091247558593	-685.2614746093751	930.2132568359377	332.4866333007812	-753.2445678710939	879.8552246093752	12.0427532196044	-834.420593261719	467.0308227539064	77.47595214843741	-873.8858032226565	465.7745666503907	209.4913940429687	-869.982360839844	415.726776123047	72.63919067382804	-825.7626953125002	395.3228454589845	129.6011810302734	-963.535095214844	77.54656982421876	128.2710418701171	-939.4053344726565	103.2570953369141	217.9894256591796	-1011.984619140625	41.43127441406251	171.2564849853515	-829.2169189453127	25.10222816467286	231.2328796386718	-805.921813964844	37.67110061645509	177.8864135742187	-840.8433227539065	21.58937454223633	117.1063003540038	-780.275329589844	836.007263183594	413.6305236816406	-583.2980957031251	477.8006591796876	341.0730285644531	-560.1168212890626	475.9315795898439	207.3165283203125	-599.2062988281251	421.1636352539064	343.1990051269531	-530.3632812500001	412.4136657714845	297.1896362304688	-603.2035522460939	81.02114868164064	303.5527954101562	-566.2160644531251	95.9368133544922	220.1292266845703	-629.8496704101564	30.91070365905762	241.5392913818359	-438.2833251953127	56.65761947631837	255.2379302978516	-445.7919311523439	70.46508026123048	311.5549621582031	-489.1931152343752	44.28594970703126	350.9488830566406	-835.8892211914065	1467.985473632813	203.5666809082031	-896.362487792969	1252.336059570313	193.9478302001953	-668.9175415039064	1158.66064453125	227.9530487060547	-712.2346191406251	1384.935180664063	219.1752319335937	-890.0546875000002	1289.840698242188	109.3359832763671	-849.0847167968752	1413.6875	86.39833831787101	-804.656677246094	1409.6005859375	28.66193008422842	-757.0589599609376	1429.837036132813	29.44194412231437	-694.4015502929689	1100.646606445313	-44.80698013305673	-720.7772827148439	1088.346069335938	16.88608741760245	-706.7285156250001	1064.772094726563	-10.17207145690927	-468.6265869140626	970.6558227539065	-35.663070678711	-518.1832275390626	935.967468261719	-75.05125427246101	-397.4918212890626	912.8642578125002	-47.25922393798834	-478.099822998047	858.5761718750002	-71.53734588623054	-914.4548950195315	1282.396240234375	259.8054504394531	-882.7785644531252	1415.642456054688	296.3071289062499	-851.613220214844	1421.506225585938	364.1190185546874	-814.8038330078127	1436.879516601563	376.9767761230468	-910.9342041015627	1124.772583007813	451.0090026855469	-933.4724731445315	1121.917358398438	378.0475463867187	-945.7423095703127	1108.097778320313	416.0070495605469	-878.9339599609378	870.4480590820315	466.96044921875	-939.7755126953128	891.9163818359377	498.5551147460938	-885.3742065429691	775.9079589843752	490.8849182128906	-978.8731079101566	815.9206542968752	491.6387023925781	
